<?xml version="1.0" encoding="UTF-8"?>
<svg id="Layer_3" data-name="Layer 3" xmlns="http://www.w3.org/2000/svg" version="1.1" viewBox="0 0 512 512">
  <defs>
    <style>
      .cls-1 {
        fill: #07253d;
        stroke-width: 0px;
      }
    </style>
  </defs>
  <path class="cls-1" d="M440,360.05v-32.05c-.03-22.08-17.92-39.97-40-40h-67.34c7.4-13.66,13.38-28.05,17.82-42.94l30.4-24.33c12.75-10.18,14.84-28.78,4.66-41.53-5.4-6.77-13.5-10.83-22.16-11.1l17.82-49.01c15.63-42.98-6.54-90.48-49.52-106.11-9.07-3.3-18.64-4.98-28.29-4.98h-67.92c-50.82-.01-100.62,14.27-143.71,41.22-3.76,2.33-4.91,7.26-2.59,11.01.99,1.6,2.51,2.8,4.3,3.39l19.29,6.4c10.76,3.59,16.58,15.23,12.99,25.99-.13.38-.26.75-.41,1.12-3.88,9.69-3.43,20.58,1.24,29.91l20.62,41.21c-16.25,1.29-28.37,15.51-27.08,31.76.65,8.13,4.63,15.64,11.01,20.73l30.4,24.33c4.44,14.89,10.41,29.28,17.81,42.94h-67.34c-22.08.03-39.97,17.92-40,40v32.05c-38.71,16.17-63.94,54-64,95.95v40c0,4.42,3.58,8,8,8h480c4.42,0,8-3.58,8-8v-40c-.06-41.96-25.29-79.78-64-95.95ZM320,168h-48c-4.42,0-8,3.58-8,8v8h-16v-8c0-4.42-3.58-8-8-8h-72v-11.72l49.94-33.29c10.75-7.18,23.38-11,36.3-10.99,18.49-.02,36.42-6.31,50.87-17.85l13.07-10.46,13.72,20.59c7.9,11.82,12.11,25.72,12.1,39.94v23.78h-24ZM312,184v24c0,4.42-3.58,8-8,8h-16c-4.42,0-8-3.58-8-8v-24h32ZM232,184v24c0,4.42-3.58,8-8,8h-16c-4.42,0-8-3.58-8-8v-24h32ZM376,197.6c0,4.13-1.87,8.05-5.1,10.62l-14.5,11.6c2.11-11.83,3.28-23.81,3.48-35.82h2.53c7.51,0,13.6,6.09,13.6,13.6h0ZM140.18,103.07c7.49-18.74-1.62-40.01-20.36-47.5-.66-.26-1.32-.51-2-.73l-2.45-.8c36.96-19.73,78.2-30.05,120.1-30.04h67.92c36.89,0,66.79,29.92,66.79,66.81,0,7.77-1.36,15.48-4.01,22.79l-6.95,19.12c-1.74-13.36-6.53-26.14-14-37.34l-18.56-27.85c-1.25-1.86-3.22-3.12-5.43-3.46-2.21-.33-4.47.27-6.22,1.66l-19.88,15.94c-11.61,9.26-26.02,14.31-40.88,14.34-16.08-.01-31.81,4.75-45.18,13.68l-53.5,35.66c-.5.34-.95.73-1.36,1.17l-13.31-26.63c-2.62-5.25-2.88-11.36-.7-16.81ZM141.11,208.24c-5.88-4.68-6.85-13.23-2.17-19.11,2.58-3.25,6.51-5.13,10.66-5.13h2.51c.2,12.02,1.36,24.01,3.48,35.84l-14.48-11.6ZM168.13,184h15.87v24c0,13.25,10.75,24,24,24h16c13.25,0,24-10.75,24-24v-8h16v8c0,13.25,10.75,24,24,24h16c13.25,0,24-10.75,24-24v-24h15.87c-.62,36.67-10.86,72.53-29.69,104h-116.37c-18.83-31.47-29.07-67.33-29.69-104ZM112,304h288c13.25,0,24,10.75,24,24v160H88v-160c0-13.25,10.75-24,24-24ZM24,456c.04-33.05,18.58-63.3,48-78.34v110.34H24v-32ZM488,488h-48v-110.34c29.42,15.05,47.95,45.3,48,78.34v32Z"/>
  <path class="cls-1" d="M256,464c17.67,0,32-14.33,32-32s-14.33-32-32-32-32,14.33-32,32,14.33,32,32,32ZM256,416c8.84,0,16,7.16,16,16s-7.16,16-16,16-16-7.16-16-16,7.16-16,16-16Z"/>
  <path class="cls-1" d="M202.34,389.66l11.31-11.31-26.34-26.34,26.34-26.34-11.31-11.31-32,32c-3.12,3.12-3.12,8.19,0,11.31l32,32Z"/>
  <path class="cls-1" d="M309.66,389.66l32-32c3.12-3.12,3.12-8.19,0-11.31l-32-32-11.31,11.31,26.34,26.34-26.34,26.34,11.31,11.31Z"/>
  <rect class="cls-1" x="216" y="344" width="80" height="16" transform="translate(-179.2 345.51) rotate(-53.12)"/>
</svg>