<?xml version="1.0" encoding="UTF-8"?>
<svg id="Layer_3" data-name="Layer 3" xmlns="http://www.w3.org/2000/svg" version="1.1" viewBox="0 0 512 512">
  <defs>
    <style>
      .cls-1 {
        fill: #df2e38;
        stroke-width: 0px;
      }
    </style>
  </defs>
  <path class="cls-1" d="M169.55,284.1l-6.05,1.6c-44.51,11.91-75.47,52.22-75.5,98.3v120h16v-120c.04-38.82,26.13-72.79,63.63-82.82l.37-.1v58.92c-4.42,0-8,3.58-8,8v96c0,4.42,3.58,8,8,8h32v32h16v-32h80v32h16v-32h32c4.42,0,8-3.58,8-8v-96c0-4.42-3.58-8-8-8v-58.93l.37.1c37.5,10.04,63.59,44.01,63.63,82.83v120h16v-120c-.05-46.07-31.01-86.37-75.51-98.29l-6.04-1.6c-4.72-18.34-19.78-32.2-38.45-35.39v-.87c15.63-11.7,26.45-28.72,30.4-47.85h1.6c17.58.09,31.91-14.1,32-31.68.04-7.83-2.81-15.4-8-21.26v-67.06c-.03-22.08-17.92-39.97-40-40h-.8c-3.82-18.61-20.2-31.98-39.2-32h-56c-39.75.04-71.96,32.25-72,72v67.06c-11.66,13.17-10.43,33.29,2.74,44.95,5.86,5.19,13.43,8.04,21.26,8h1.6c3.95,19.13,14.77,36.14,30.4,47.85v.87c-18.67,3.19-33.72,17.05-38.45,35.38ZM184,296c.05-14.55,9.91-27.23,24-30.86v17.02c-4.95,2.86-8,8.13-8,13.85v64h-16v-64ZM336,376v16h-16v-16h16ZM291.31,360l-13.66-13.66c-1.5-1.5-3.53-2.34-5.66-2.34h-32c-2.12,0-4.16.84-5.66,2.34l-13.66,13.66h-4.69v-58.3c19.08,22.09,52.46,24.53,74.55,5.45,1.95-1.68,3.77-3.5,5.45-5.45v58.3h-4.69ZM288,285.6l-1.34,2.02c-11.28,16.93-34.16,21.51-51.09,10.23-4.05-2.7-7.53-6.18-10.23-10.23l-1.34-2.02v-28.33c20.39,8.97,43.61,8.97,64,0v28.33ZM176,376h16v80h-16v-80ZM256,456h-48v-80h16c2.12,0,4.16-.84,5.66-2.34l13.66-13.66h25.38l13.66,13.66c1.5,1.5,3.53,2.34,5.66,2.34h16v24c0,4.42,3.58,8,8,8h24v48h-80ZM328,296v64h-16v-64c0-5.71-3.05-10.99-8-13.85v-17.02c14.09,3.64,23.95,16.32,24,30.86ZM336,184v-32c8.84,0,16,7.16,16,16s-7.16,16-16,16ZM224,24h56c13.25,0,24,10.75,24,24,0,4.42,3.58,8,8,8h8c13.25,0,24,10.75,24,24v57.14c-2.61-.72-5.3-1.1-8-1.14v-8c0-2.12-.84-4.16-2.34-5.66l-40-40c-3.13-3.12-8.19-3.12-11.31,0-1.11,1.12-1.87,2.53-2.18,4.08-3.95,19.5-21.07,33.52-40.96,33.57h-55.2c-4.42,0-8,3.58-8,8v8c-2.7.03-5.39.42-8,1.14v-57.14c.04-30.91,25.09-55.96,56-56ZM160,168c0-8.84,7.16-16,16-16v32c-8.84,0-16-7.16-16-16ZM192,184v-48h47.2c22.37-.05,42.71-12.97,52.27-33.2l28.53,28.51v52.69c0,35.35-28.65,64-64,64s-64-28.65-64-64Z"/>
  <path class="cls-1" d="M296,416c0-22.09-17.91-40-40-40s-40,17.91-40,40,17.91,40,40,40c22.08-.03,39.97-17.92,40-40ZM256,440c-13.25,0-24-10.75-24-24s10.75-24,24-24,24,10.75,24,24-10.75,24-24,24Z"/>
  <rect class="cls-1" x="136" y="432" width="16" height="72"/>
  <rect class="cls-1" x="360" y="432" width="16" height="72"/>
</svg>