<?xml version="1.0" encoding="UTF-8"?>
<svg id="Layer_3" data-name="Layer 3" xmlns="http://www.w3.org/2000/svg" version="1.1" viewBox="0 0 512 512">
  <defs>
    <style>
      .cls-1 {
        fill: #df2e38;
        stroke-width: 0px;
      }
    </style>
  </defs>
  <path class="cls-1" d="M415.46,119.96l-5.02,30.75c-.5,3.02.79,6.06,3.29,7.83s5.82,1.94,8.48.46l25.79-14.26,25.8,14.26c1.2.66,2.54,1,3.86,1,1.62,0,3.23-.5,4.61-1.46,2.5-1.76,3.78-4.81,3.29-7.83l-5.02-30.75,21.18-21.7c2.1-2.14,2.82-5.28,1.86-8.13s-3.42-4.92-6.38-5.37l-28.94-4.42-13.02-27.74c-1.31-2.8-4.13-4.59-7.23-4.59s-5.92,1.79-7.24,4.6l-13.02,27.74-28.94,4.42c-2.96.46-5.42,2.53-6.38,5.37s-.23,5.98,1.86,8.13l21.18,21.7ZM434.38,95.51c2.63-.41,4.9-2.1,6.03-4.51l7.59-16.18,7.59,16.18c1.14,2.42,3.4,4.1,6.03,4.51l17.78,2.71-13.13,13.46c-1.78,1.82-2.58,4.37-2.17,6.87l3.02,18.47-15.25-8.42c-1.2-.66-2.53-1-3.86-1s-2.66.34-3.86,1l-15.25,8.42,3.02-18.47c.41-2.5-.4-5.06-2.17-6.87l-13.13-13.46,17.76-2.71Z"/>
  <path class="cls-1" d="M31.4,122.71l-4.94,27.9c-.58,3.29.94,6.59,3.82,8.29,2.86,1.69,6.5,1.43,9.1-.67l24.62-19.94,24.63,19.93c1.46,1.18,3.24,1.78,5.03,1.78,1.4,0,2.81-.37,4.06-1.11,2.87-1.7,4.4-5,3.82-8.29l-4.94-27.9,21.06-21.06c2.04-2.04,2.82-5.02,2.06-7.79-.78-2.78-2.98-4.93-5.78-5.62l-28.43-7.1-14.35-28.7c-2.72-5.42-11.59-5.42-14.31,0l-14.35,28.71-28.43,7.1c-2.8.7-5,2.85-5.78,5.62-.77,2.78.02,5.75,2.06,7.79l21.06,21.06ZM49.94,95.76c2.26-.57,4.17-2.1,5.22-4.18l8.85-17.69,8.84,17.69c1.05,2.09,2.95,3.62,5.22,4.18l18.29,4.58-14.01,14.01c-1.84,1.85-2.68,4.48-2.22,7.05l1.93,10.92-13.02-10.54c-1.46-1.18-3.24-1.78-5.02-1.78s-3.56.59-5.03,1.78l-13.02,10.54,1.93-10.92c.46-2.57-.38-5.2-2.22-7.05l-14.01-14.01,18.29-4.58Z"/>
  <path class="cls-1" d="M496,392h-96v-40c0-4.42-3.58-8-8-8h-8v-64c0-35.29-28.71-64-64-64h-16v-16.15c10.94-8.24,19.71-19.16,25.27-31.85h10.73c15.44,0,28-12.56,28-28,0-14.06-10.46-25.63-24-27.59v-16.41c0-48.52-39.48-88-88-88s-88,39.48-88,88v16.41c-13.54,1.96-24,13.53-24,27.59,0,15.44,12.56,28,28,28h10.73c5.56,12.69,14.34,23.61,25.27,31.85v16.15h-16c-35.29,0-64,28.71-64,64v64h-8c-4.42,0-8,3.58-8,8v40H16c-4.42,0-8,3.58-8,8v96c0,4.42,3.58,8,8,8h480c4.42,0,8-3.58,8-8v-96c0-4.42-3.58-8-8-8ZM368,280v64h-82.58l-12.66-31.64,9.22-18.43,18.44,9.22c1.13.57,2.36.85,3.58.85,1.04,0,2.08-.2,3.06-.61,2.14-.89,3.8-2.66,4.52-4.86l21.55-64.66c20.1,5.73,34.86,24.21,34.86,46.12h0ZM212.25,232l31.14,37.36-30.71,15.36-17.58-52.72h17.15ZM299.75,232h17.15l-17.58,52.72-30.71-15.36,31.14-37.36ZM256,280.94l11.66,5.83-8.61,17.22h-6.11l-8.61-17.22,11.66-5.83ZM253.42,320h5.16l9.6,24h-24.36l9.6-24ZM352,140c0,6.62-5.38,12-12,12h-5.62c1.06-5.17,1.62-10.52,1.62-16v-8h4c6.62,0,12,5.38,12,12ZM172,152c-6.62,0-12-5.38-12-12s5.38-12,12-12h4v8c0,5.48.56,10.83,1.62,16h-5.62ZM184,96c0-39.7,32.3-72,72-72s72,32.3,72,72v16c-12.52,0-24.49-5.98-32-16l-9.6-12.8c-3.02-4.03-9.78-4.03-12.8,0l-9.6,12.8c-7.51,10.02-19.48,16-32,16h-48v-16ZM192,136v-8h40c17.53,0,34.28-8.38,44.8-22.4l3.2-4.27,3.2,4.27c8.9,11.87,22.26,19.7,36.8,21.82v8.58c0,35.29-28.71,64-64,64s-64-28.71-64-64ZM256,216c11.38,0,22.19-2.42,32-6.73v11.83l-32,38.4-32-38.4v-11.83c9.81,4.3,20.62,6.73,32,6.73ZM144,280c0-21.91,14.77-40.39,34.86-46.13l21.55,64.66c.73,2.2,2.38,3.98,4.52,4.86.98.42,2.02.62,3.06.62,1.22,0,2.46-.28,3.58-.84l18.44-9.22,9.22,18.43-12.65,31.63h-82.58v-64ZM384,360v128H128v-128h256ZM24,408h88v80H24v-80ZM488,488h-88v-80h88v80Z"/>
</svg>