<?xml version="1.0" encoding="UTF-8"?>
<svg id="Layer_3" data-name="Layer 3" xmlns="http://www.w3.org/2000/svg" version="1.1" viewBox="0 0 512 512">
  <defs>
    <style>
      .cls-1 {
        fill: #df2e38;
        stroke-width: 0px;
      }
    </style>
  </defs>
  <path class="cls-1" d="M80,504h224c22.08-.03,39.97-17.92,40-40v-32h40c4.42,0,8-3.58,8-8v-13.54c3.18-1.12,6.3-2.41,9.35-3.86l9.6,9.6c3.12,3.12,8.19,3.12,11.31,0l33.94-33.94c3.12-3.12,3.12-8.19,0-11.31l-9.6-9.6c1.45-3.04,2.73-6.16,3.85-9.34h13.54c4.42,0,8-3.58,8-8v-48c0-4.42-3.58-8-8-8h-13.54c-1.12-3.18-2.41-6.3-3.86-9.35l9.6-9.6c3.12-3.12,3.12-8.19,0-11.31l-33.94-33.94c-3.12-3.12-8.19-3.12-11.31,0l-9.6,9.6c-3.04-1.45-6.16-2.73-9.34-3.85v-13.54c0-4.42-3.58-8-8-8h-40V48c-.03-22.08-17.92-39.97-40-40H80c-22.08.03-39.97,17.92-40,40v416c.03,22.08,17.92,39.97,40,40ZM381.82,243.1c5.97,1.68,11.72,4.06,17.14,7.07,3.13,1.77,7.06,1.22,9.6-1.33l8-8,22.63,22.59-8,8c-2.55,2.54-3.09,6.47-1.33,9.6,3.02,5.42,5.39,11.18,7.07,17.15.98,3.44,4.12,5.82,7.7,5.82h11.36v32h-11.4c-3.58,0-6.72,2.37-7.7,5.82-1.68,5.97-4.05,11.73-7.07,17.15-1.77,3.13-1.22,7.06,1.33,9.6l8,8-22.59,22.63-8-8c-2.54-2.55-6.47-3.09-9.6-1.33-5.42,3.02-11.17,5.39-17.14,7.07-3.44.97-5.82,4.12-5.82,7.7v11.36h-32v-11.4c0-3.58-2.38-6.72-5.82-7.7-5.97-1.68-11.72-4.06-17.14-7.07-3.13-1.77-7.06-1.22-9.6,1.33l-8,8-22.63-22.59,8-8c2.55-2.54,3.09-6.47,1.33-9.6-3.02-5.42-5.39-11.18-7.07-17.15-.97-3.43-4.09-5.8-7.66-5.82h-11.4v-32h11.4c3.58,0,6.72-2.37,7.7-5.82,1.68-5.97,4.05-11.73,7.07-17.15,1.77-3.13,1.22-7.06-1.33-9.6l-8-8,22.59-22.63,8,8c2.54,2.55,6.47,3.09,9.6,1.33,5.42-3.02,11.17-5.39,17.14-7.07,3.43-.97,5.81-4.09,5.82-7.66v-11.4h32v11.4c0,3.58,2.38,6.72,5.82,7.7h0ZM128,88h128c13.25,0,24-10.75,24-24v-8h8c4.42,0,8,3.58,8,8v161.6l-32.17,32.17c-3.12,3.12-3.12,8.19,0,11.31l9.6,9.6c-1.46,3.04-2.76,6.15-3.89,9.32h-13.54c-4.42,0-8,3.58-8,8v48c0,4.42,3.58,8,8,8h13.54c1.12,3.18,2.41,6.3,3.86,9.34l-9.6,9.6c-3.12,3.12-3.12,8.19,0,11.31l32.2,32.14v33.6c0,4.42-3.58,8-8,8H96c-4.42,0-8-3.58-8-8V64c0-4.42,3.58-8,8-8h8v8c0,13.25,10.75,24,24,24h0ZM56,48c0-13.25,10.75-24,24-24h224c13.25,0,24,10.75,24,24v181.54c-3.18,1.12-6.3,2.41-9.34,3.86l-6.66-6.66V64c0-13.25-10.75-24-24-24h-16c-4.42,0-8,3.58-8,8v16c0,4.42-3.58,8-8,8h-128c-4.42,0-8-3.58-8-8v-16c0-4.42-3.58-8-8-8h-16c-13.25,0-24,10.75-24,24v384c0,13.25,10.75,24,24,24h192c13.25,0,24-10.75,24-24v-34.75l6.65-6.65c3.05,1.45,6.17,2.73,9.35,3.86v53.54c0,13.25-10.75,24-24,24H80c-13.25,0-24-10.75-24-24V48Z"/>
  <path class="cls-1" d="M144,40h80v16h-80v-16Z"/>
  <path class="cls-1" d="M240,40h16v16h-16v-16Z"/>
  <path class="cls-1" d="M168,424h48v16h-48v-16Z"/>
  <path class="cls-1" d="M304,320c0,30.93,25.07,56,56,56s56-25.07,56-56-25.07-56-56-56c-30.91.04-55.96,25.09-56,56ZM400,320c0,22.09-17.91,40-40,40s-40-17.91-40-40,17.91-40,40-40c22.08.03,39.97,17.92,40,40Z"/>
  <path class="cls-1" d="M106.34,181.66l48,48,11.31-11.31-42.34-42.34,42.34-42.34-11.31-11.31-48,48c-3.12,3.12-3.12,8.19,0,11.31Z"/>
  <path class="cls-1" d="M229.66,229.66l48-48c3.12-3.12,3.12-8.19,0-11.31l-48-48-11.31,11.31,42.34,42.34-42.34,42.34,11.31,11.31Z"/>
  <path class="cls-1" d="M176.11,222.81l16.06-95.97,15.78,2.64-16.06,95.97-15.78-2.64Z"/>
</svg>