<?xml version="1.0" encoding="UTF-8"?>
<svg id="Layer_3" data-name="Layer 3" xmlns="http://www.w3.org/2000/svg" version="1.1" viewBox="0 0 512 512">
  <defs>
    <style>
      .cls-1 {
        fill: #07253d;
        stroke-width: 0px;
      }
    </style>
  </defs>
  <path class="cls-1" d="M240,360h32v16h-32v-16Z"/>
  <path class="cls-1" d="M464,88v-56c0-13.25-10.75-24-24-24H72c-13.25,0-24,10.75-24,24v56c-22.08.03-39.97,17.92-40,40v240c.03,22.08,17.92,39.97,40,40h160v32h-24.45c-30.75.07-55.62,25.06-55.55,55.81,0,.06,0,.13,0,.19,0,4.42,3.58,8,8,8h240c4.38,0,7.95-3.52,8-7.9.34-30.64-24.23-55.76-54.88-56.09-.23,0-.45,0-.68,0h-24.45v-32h160c22.08-.03,39.97-17.92,40-40v-240c-.03-22.08-17.92-39.97-40-40ZM64,88h384v184c0,4.42-3.58,8-8,8H72c-4.42,0-8-3.58-8-8V88ZM72,24h368c4.42,0,8,3.58,8,8v40H64v-40c0-4.42,3.58-8,8-8ZM48,104v168c0,13.25,10.75,24,24,24h368c13.25,0,24-10.75,24-24V104c13.25,0,24,10.75,24,24v200H24v-200c0-13.25,10.75-24,24-24ZM356.62,467.76c5.5,5.53,9.22,12.58,10.68,20.24h-222.6c3.63-18.58,19.91-31.99,38.85-32h144.9c10.59-.04,20.75,4.2,28.18,11.76h0ZM288,440h-64v-32h64v32ZM464,392H48c-13.25,0-24-10.75-24-24v-24h464v24c0,13.25-10.75,24-24,24Z"/>
  <path class="cls-1" d="M352,40h16v16h-16v-16Z"/>
  <path class="cls-1" d="M384,40h16v16h-16v-16Z"/>
  <path class="cls-1" d="M416,40h16v16h-16v-16Z"/>
  <path class="cls-1" d="M168,256c35.33-.04,63.96-28.67,64-64v-56c0-13.25-10.75-24-24-24s-24,10.75-24,24v56c0,8.84-7.16,16-16,16s-16-7.16-16-16v-56c0-13.25-10.75-24-24-24s-24,10.75-24,24v56c.04,35.33,28.67,63.96,64,64ZM120,136c0-4.42,3.58-8,8-8s8,3.58,8,8v56c0,17.67,14.33,32,32,32s32-14.33,32-32v-56c0-4.42,3.58-8,8-8s8,3.58,8,8v56c0,26.51-21.49,48-48,48s-48-21.49-48-48v-56Z"/>
  <path class="cls-1" d="M248,231.03c0,13.79,11.18,24.97,24.97,24.97,6.62,0,12.97-2.63,17.66-7.31l29.38-29.38,29.38,29.38c9.75,9.75,25.56,9.75,35.31,0,4.68-4.68,7.31-11.03,7.31-17.66-.02-6.62-2.65-12.96-7.31-17.66l-29.38-29.38,29.38-29.38c9.75-9.75,9.75-25.56,0-35.31-4.68-4.68-11.03-7.31-17.66-7.31-6.63-.02-12.98,2.61-17.66,7.31l-29.38,29.38-29.38-29.38c-9.75-9.75-25.56-9.75-35.31,0-4.68,4.68-7.31,11.03-7.31,17.66.02,6.62,2.65,12.96,7.31,17.66l29.38,29.38-29.38,29.38c-4.67,4.69-7.29,11.04-7.31,17.66h0ZM266.62,224.69l35.03-35.03c3.12-3.12,3.12-8.19,0-11.31l-35.03-35.03c-3.5-3.5-3.51-9.18,0-12.68,1.68-1.68,3.97-2.63,6.35-2.63,2.38,0,4.67.94,6.34,2.62l35.03,35.03c3.12,3.12,8.19,3.12,11.31,0l35.03-35.03c3.5-3.5,9.18-3.51,12.68,0,1.68,1.68,2.63,3.97,2.63,6.35,0,2.38-.95,4.66-2.62,6.34l-35.03,35.03c-3.12,3.12-3.12,8.19,0,11.31l35.03,35.03c3.5,3.5,3.51,9.18,0,12.68-1.68,1.68-3.97,2.63-6.35,2.63-2.38,0-4.67-.94-6.34-2.62l-35.03-35.03c-3.12-3.12-8.19-3.12-11.31,0l-35.03,35.03c-3.5,3.5-9.18,3.51-12.68,0-1.68-1.68-2.63-3.97-2.63-6.35,0-2.38.95-4.66,2.62-6.34Z"/>
</svg>