<?xml version="1.0" encoding="UTF-8"?>
<svg id="Layer_3" data-name="Layer 3" xmlns="http://www.w3.org/2000/svg" version="1.1" viewBox="0 0 512 512">
  <defs>
    <style>
      .cls-1 {
        fill: #07253d;
        stroke-width: 0px;
      }
    </style>
  </defs>
  <path class="cls-1" d="M472,48H40c-17.67,0-32,14.33-32,32v272c0,17.67,14.33,32,32,32h152v32h-8c-4.42,0-8,3.58-8,8v32c0,4.42,3.58,8,8,8h144c4.42,0,8-3.58,8-8v-32c0-4.42-3.58-8-8-8h-8v-32h152c17.67,0,32-14.33,32-32V80c0-17.67-14.33-32-32-32ZM40,64h432c8.84,0,16,7.16,16,16v240H24V80c0-8.84,7.16-16,16-16ZM320,448h-128v-16h128v16ZM304,416h-96v-32h96v32ZM472,368H40c-8.84,0-16-7.16-16-16v-16h464v16c0,8.84-7.16,16-16,16Z"/>
  <path class="cls-1" d="M48,288h252.68l8,8c10.67,10.67,27.97,10.67,38.64,0l26.34-26.34c1.5-1.5,2.34-3.54,2.34-5.66v-12.69l4-4,4,4v12.69c0,2.12.84,4.16,2.34,5.66l26.33,26.34c10.67,10.67,27.97,10.67,38.64,0h0s12.69-12.69,12.69-12.69c10.66-10.67,10.66-27.96,0-38.63l-26.34-26.34c-1.5-1.5-3.54-2.34-5.66-2.34h-12.69l-4-4,22.34-22.34c1.5-1.5,2.34-3.53,2.34-5.66v-40c0-4.42-3.58-8-8-8h-8c-2.12,0-4.15.84-5.66,2.34l-38.34,38.34-36-36v-36.68c0-4.42-3.58-8-8-8H48c-4.42,0-8,3.58-8,8v176c0,4.42,3.58,8,8,8ZM56,256h16v16h-16v-16ZM322.34,189.66l22.34,22.34-4,4h-12.68c-2.12,0-4.16.84-5.66,2.34l-21.67,21.66h-36.67v-96h56v40c0,2.12.84,4.16,2.34,5.66ZM104,256v16h-16v-16h16ZM248,144v96h-112v-96h112ZM120,256h16v16h-16v-16ZM152,256h16v16h-16v-16ZM184,256h16v16h-16v-16ZM216,256h16v16h-16v-16ZM248,256h16v16h-16v-16ZM280,256h9.31c-1.76,5.19-1.76,10.81,0,16h-9.31v-16ZM280,128v-16h16v16h-16ZM264,128h-16v-16h16v16ZM232,128h-16v-16h16v16ZM200,128h-16v-16h16v16ZM168,128h-16v-16h16v16ZM136,128h-16v-16h16v16ZM104,128h-16v-16h16v16ZM120,144v96H56v-96h64ZM362.35,242.34c-1.51,1.5-2.35,3.54-2.35,5.66v12.68l-24,24c-4.48,4.27-11.52,4.27-16,0l-12.69-12.68c-2.11-2.13-3.3-5-3.31-8,0-3,1.19-5.88,3.31-8l24-24h12.69c2.12,0,4.16-.84,5.66-2.34l6.34-6.34,12.7,12.69-6.34,6.34ZM428.69,232l24,24c2.13,2.12,3.32,5,3.31,8-.01,3-1.2,5.87-3.31,8l-12.69,12.68c-4.48,4.28-11.52,4.28-16,0l-24-24v-12.68c0-2.12-.84-4.16-2.34-5.66l-61.66-61.66v-25.37l74.34,74.34c1.5,1.5,3.53,2.34,5.66,2.34h12.69ZM424,155.31v25.37l-20,20-12.69-12.68,32.69-32.69ZM328,128h-16v-16h16v16ZM72,112v16h-16v-16h16Z"/>
  <path class="cls-1" d="M163.8,222.81c2.36,1.46,5.3,1.59,7.78.35l48-24c3.95-1.97,5.56-6.77,3.59-10.73-.78-1.56-2.04-2.82-3.59-3.59l-48-24c-3.95-1.97-8.76-.37-10.73,3.58-.56,1.11-.84,2.34-.84,3.58v48c0,2.77,1.44,5.35,3.8,6.81ZM176,180.94l22.11,11.06-22.11,11.06v-22.11Z"/>
  <rect class="cls-1" x="420" y="243.02" width="16" height="33.94" transform="translate(-58.49 378.79) rotate(-45)"/>
  <rect class="cls-1" x="315.03" y="252" width="33.94" height="16" transform="translate(-86.6 310.91) rotate(-45)"/>
</svg>